# xmcd
#
# Track frame offsets:
#	150
#	12509
#	29522
#	40930
#	51272
#	62215
#	76009
#	90927
#	99649
#	111818
#	123797
#	136672
#
# Disc length: 2144 seconds
#
# Revision: 1
# Processed by: cddbd v1.5.2PL0 Copyright (c) Steve Scherf et al.
# Submitted via: EasyCDDAExtractor 11.1.0.1
#
DISCID=90085e0c
DTITLE=Johnny Cash - Wanted Man - The Johnny Cash Collection
DYEAR=2008
DGENRE=country
TTITLE0=I Walk The Line
TTITLE1=A Boy Named Sue
TTITLE2=Big River
TTITLE3=Paul Revere
TTITLE4=The Long Black Veil
TTITLE5=Don't Take Your Guns To Town
TTITLE6=Cocaine Blues
TTITLE7=Wreck Of The Old 97
TTITLE8=Lonesome To The Bone
TTITLE9=The Letter Edged In Black
TTITLE10=Wanted Man
TTITLE11=Highway Patrolman
EXTD=ID3G:  17 YEAR: 2008
EXTT0=
EXTT1=
EXTT2=
EXTT3=
EXTT4=
EXTT5=
EXTT6=
EXTT7=
EXTT8=
EXTT9=
EXTT10=
EXTT11=
PLAYORDER=
